<?xml version="1.0" standalone="no"?>
<!DOCTYPE svg PUBLIC "-//W3C//DTD SVG 20010904//EN"
 "http://www.w3.org/TR/2001/REC-SVG-20010904/DTD/svg10.dtd">
<svg version="1.0" xmlns="http://www.w3.org/2000/svg"
 width="300.000000pt" height="300.000000pt" viewBox="0 0 300.000000 300.000000"
 preserveAspectRatio="xMidYMid meet">
<metadata>
Created by potrace 1.10, written by Peter Selinger 2001-2011
</metadata>
<g transform="translate(0.000000,300.000000) scale(0.100000,-0.100000)"
fill="#000000" stroke="none">
<path d="M1472 2984 c-22 -15 -22 -18 -22 -259 0 -197 3 -246 14 -258 9 -8 47
-16 98 -20 46 -4 99 -9 119 -13 39 -7 69 13 69 46 0 31 -27 48 -87 55 -32 3
-70 9 -85 11 l-28 6 0 208 c0 204 0 209 -22 224 -12 9 -25 16 -28 16 -3 0 -16
-7 -28 -16z m63 -454 c31 -29 32 -40 2 -40 -44 0 -47 12 -47 225 0 111 3 205
8 209 4 4 8 -77 10 -182 2 -187 3 -189 27 -212z"/>
<path d="M451 2886 c-87 -48 -50 -186 50 -186 25 0 79 27 79 40 0 6 89 10 235
10 l235 0 0 -171 c0 -98 4 -178 10 -190 14 -25 37 -24 123 6 40 13 91 29 114
35 27 7 44 17 48 30 10 30 -4 59 -30 66 -20 5 -94 -11 -150 -32 -13 -5 -15 12
-15 134 0 88 -4 151 -12 167 -23 51 -46 55 -309 55 l-241 0 -30 25 c-33 28
-70 31 -107 11z m95 -47 c3 -6 20 -17 36 -24 l30 -12 -57 -33 -57 -33 -26 20
c-34 25 -39 49 -16 74 19 21 78 26 90 8z m554 -69 c5 -10 10 -75 10 -143 0
-145 11 -170 71 -170 l34 1 -40 -19 c-22 -10 -49 -18 -60 -16 -19 2 -20 11
-23 164 l-2 162 -30 25 c-19 15 -25 26 -17 29 17 6 45 -10 57 -33z"/>
<path d="M2455 2888 c-11 -6 -24 -17 -28 -25 -6 -10 -59 -13 -253 -13 -268 0
-291 -4 -313 -57 -8 -19 -11 -91 -9 -218 l3 -190 75 -38 c77 -40 196 -125 239
-171 31 -33 66 -33 86 -2 12 19 14 30 6 44 -23 43 -201 178 -282 214 l-29 13
0 152 0 153 235 0 c146 0 235 -4 235 -10 0 -13 54 -40 79 -40 52 0 101 48 101
99 0 73 -83 124 -145 89z m90 -62 c19 -28 9 -58 -25 -76 -16 -9 -30 -5 -70 17
-28 15 -50 30 -50 33 0 3 17 15 38 27 50 30 87 29 107 -1z m-604 -52 l-31 -26
0 -148 c0 -175 -2 -171 122 -247 76 -47 199 -148 171 -141 -7 2 -46 30 -88 63
-42 33 -109 78 -148 100 l-72 41 -3 168 c-3 187 4 216 54 216 l26 0 -31 -26z"/>
<path d="M818 2296 c-68 -57 -138 -135 -183 -203 l-28 -43 -161 0 c-148 0
-163 2 -178 20 -47 54 -146 27 -164 -45 -24 -96 101 -168 164 -95 15 19 30 20
203 20 l187 0 48 71 c45 68 140 172 212 232 35 30 41 57 16 81 -26 26 -50 19
-116 -38z m-4 -84 c-44 -42 -99 -106 -124 -141 -51 -73 -69 -87 -96 -77 -17 7
-15 9 13 21 19 8 53 42 86 87 58 78 168 188 188 188 6 0 -24 -35 -67 -78z
m-566 -178 c13 -9 35 -19 49 -23 24 -6 21 -9 -37 -39 -59 -31 -63 -32 -87 -17
-33 22 -38 41 -19 70 19 29 60 33 94 9z"/>
<path d="M1405 2244 c-11 -2 -45 -9 -75 -15 -261 -52 -492 -283 -561 -559 -20
-78 -17 -279 4 -356 74 -269 287 -478 557 -545 31 -8 106 -14 170 -14 64 0
139 6 170 14 275 68 492 285 561 561 17 68 17 278 0 340 -77 279 -273 480
-546 557 -50 14 -243 26 -280 17z m270 -59 c249 -64 442 -255 511 -505 25 -89
25 -261 1 -355 -37 -141 -135 -294 -245 -378 -267 -206 -616 -206 -883 -1
-107 82 -186 196 -235 339 -25 72 -28 94 -28 215 0 126 2 141 31 223 42 118
85 188 168 273 178 179 439 251 680 189z"/>
<path d="M1403 2123 c-56 -19 -133 -89 -162 -148 -14 -28 -26 -73 -29 -112 -4
-54 -9 -67 -29 -81 -123 -85 -125 -92 -121 -424 l3 -266 30 -44 c17 -23 49
-53 70 -65 39 -22 48 -23 335 -23 287 0 296 1 335 23 21 12 53 42 70 65 l30
44 0 282 0 282 -28 43 c-24 36 -69 73 -101 84 -5 2 -13 35 -17 74 -9 89 -43
158 -104 211 -78 68 -186 90 -282 55z m221 -57 c86 -50 125 -126 126 -242 l0
-72 35 -6 c45 -9 102 -65 110 -108 3 -18 5 -148 3 -288 -4 -368 16 -350 -398
-350 -312 0 -329 3 -373 64 -21 30 -22 41 -25 286 -2 140 0 270 3 288 8 42 65
99 109 107 l34 7 4 87 c5 100 32 160 93 207 81 61 195 70 279 20z"/>
<path d="M1430 1981 c-53 -28 -80 -82 -80 -163 l0 -68 150 0 150 0 0 65 c0 85
-25 137 -80 165 -49 25 -95 25 -140 1z m131 -42 c21 -11 49 -69 49 -102 0 -41
-20 -48 -121 -45 l-94 3 -3 35 c-7 95 83 153 169 109z"/>
<path d="M1216 1634 c-24 -23 -24 -495 0 -518 23 -24 545 -24 568 0 24 23 24
495 0 518 -13 14 -53 16 -284 16 -231 0 -271 -2 -284 -16z m249 -30 c11 -5 3
-13 -32 -29 -56 -26 -86 -56 -108 -107 -34 -82 -12 -144 83 -240 87 -89 98
-89 186 1 95 99 115 157 81 239 -22 51 -52 81 -108 107 -60 29 -46 35 77 35
58 0 96 -4 104 -12 17 -17 17 -429 0 -446 -17 -17 -479 -17 -496 0 -17 17 -17
429 0 446 13 13 183 17 213 6z m101 -70 c100 -48 111 -201 18 -256 -18 -10
-35 -30 -38 -43 -11 -45 -81 -45 -92 0 -3 13 -20 33 -38 43 -43 26 -70 83 -63
138 11 104 118 163 213 118z"/>
<path d="M1466 1434 c-9 -8 -16 -24 -16 -34 0 -10 7 -26 16 -34 8 -9 24 -16
34 -16 43 0 65 54 34 84 -8 9 -24 16 -34 16 -10 0 -26 -7 -34 -16z"/>
<path d="M2755 2088 c-11 -6 -24 -17 -28 -25 -6 -10 -48 -13 -188 -13 -105 0
-188 -4 -200 -10 -27 -15 -24 -48 12 -121 59 -119 99 -276 99 -390 0 -80 -4
-79 275 -79 l245 0 16 25 c15 23 15 27 0 50 l-16 25 -210 0 -209 0 -6 48 c-17
125 -44 228 -90 335 -7 16 3 17 128 17 104 0 138 -3 144 -14 11 -18 47 -36 72
-36 52 0 101 48 101 99 0 73 -83 124 -145 89z m90 -62 c13 -19 14 -29 5 -45
-21 -41 -45 -44 -104 -14 -30 16 -55 30 -55 33 0 3 19 15 42 27 57 29 93 29
112 -1z m-371 -25 c3 -5 -3 -11 -14 -14 -11 -3 -25 -17 -31 -31 -10 -22 -8
-41 19 -124 34 -107 52 -187 52 -233 0 -22 10 -41 34 -65 l34 -34 -24 -6 c-39
-10 -51 9 -57 98 -7 96 -45 236 -89 325 -38 77 -33 93 26 93 25 0 47 -4 50 -9z"/>
<path d="M503 1823 c-15 -38 -37 -137 -48 -225 l-6 -48 -209 0 -210 0 -16 -25
c-15 -23 -15 -27 0 -50 l16 -25 245 0 c197 0 246 3 258 14 9 9 16 47 20 100 3
47 16 126 28 176 25 101 20 120 -33 120 -24 0 -32 -6 -45 -37z m31 -92 c-8
-32 -17 -96 -21 -141 -8 -87 -22 -110 -58 -96 -16 6 -16 9 10 36 23 24 30 44
41 117 12 82 28 143 37 143 3 0 -2 -26 -9 -59z"/>
<path d="M486 1334 c-9 -8 -16 -23 -16 -32 0 -26 35 -143 59 -197 11 -26 21
-49 21 -51 0 -2 -60 -4 -133 -4 -120 0 -134 2 -149 20 -63 73 -188 1 -164 -95
18 -72 117 -99 164 -45 15 19 30 20 202 20 131 0 190 4 198 12 20 20 14 52
-23 126 -19 39 -46 110 -60 159 -14 48 -31 91 -38 95 -19 12 -44 9 -61 -8z
m64 -121 c12 -38 35 -96 52 -130 38 -79 34 -93 -30 -93 -60 0 -72 10 -33 26
45 19 47 48 12 152 -17 50 -31 96 -31 101 0 25 10 7 30 -56z m-288 -185 c26
-13 47 -25 47 -28 0 -3 -25 -18 -56 -33 l-56 -29 -26 20 c-33 24 -38 48 -15
73 23 25 49 24 106 -3z"/>
<path d="M2453 1342 c-7 -4 -24 -47 -38 -95 -14 -49 -41 -120 -60 -159 -37
-74 -43 -106 -23 -126 8 -8 67 -12 198 -12 172 0 187 -1 202 -20 47 -54 146
-27 164 45 24 96 -101 168 -164 95 -15 -18 -29 -20 -149 -20 -73 0 -133 2
-133 4 0 2 10 25 21 51 24 54 59 171 59 197 0 35 -46 59 -77 40z m-4 -177
c-27 -85 -29 -101 -18 -122 7 -13 23 -26 36 -29 38 -10 15 -24 -38 -24 -65 0
-69 14 -31 93 16 34 40 94 53 132 12 39 24 65 26 59 2 -6 -10 -55 -28 -109z
m396 -139 c19 -28 9 -58 -26 -76 -16 -9 -28 -6 -62 13 -23 14 -51 26 -62 28
-15 3 -7 10 30 31 65 34 100 35 120 4z"/>
<path d="M708 889 c-10 -6 -18 -22 -18 -37 0 -50 216 -235 328 -281 l32 -13 0
-154 0 -154 -235 0 c-146 0 -235 4 -235 10 0 13 -54 40 -79 40 -52 0 -101 -48
-101 -100 0 -33 26 -75 55 -88 40 -18 71 -14 103 13 l30 25 241 0 c265 0 288
4 310 57 8 19 11 91 9 218 l-3 190 -65 34 c-102 52 -168 100 -250 178 -75 73
-90 81 -122 62z m310 -255 l87 -51 3 -168 c3 -186 -4 -215 -54 -215 l-26 0 31
26 31 26 0 148 c0 175 2 171 -122 247 -80 49 -218 165 -218 184 0 5 41 -26 90
-69 50 -42 129 -100 178 -128z m-453 -408 l45 -24 -56 -32 -56 -33 -26 20
c-34 25 -39 49 -16 74 23 25 54 24 109 -5z"/>
<path d="M2169 824 c-44 -47 -163 -132 -235 -168 -40 -20 -74 -43 -78 -52 -3
-8 -6 -96 -6 -195 0 -196 6 -225 55 -247 18 -8 101 -12 267 -12 l240 0 30 -25
c32 -27 63 -31 103 -13 29 13 55 55 55 88 0 52 -49 100 -101 100 -25 0 -79
-27 -79 -40 0 -6 -89 -10 -235 -10 l-235 0 0 154 0 154 31 12 c85 36 272 180
282 219 7 27 -19 61 -47 61 -12 0 -33 -12 -47 -26z m-4 -80 c-27 -25 -88 -69
-133 -97 -124 -76 -122 -72 -122 -247 l0 -148 31 -26 31 -26 -26 0 c-50 0 -57
29 -54 215 l3 169 82 47 c45 26 113 72 150 103 80 67 109 74 38 10z m381 -519
c15 -23 15 -27 0 -51 -26 -38 -40 -39 -101 -4 l-55 32 42 23 c58 32 93 32 114
0z"/>
<path d="M1267 555 c-42 -41 -10 -81 70 -90 32 -3 70 -9 86 -11 l27 -6 0 -209
0 -209 25 -16 c23 -15 27 -15 50 0 l25 16 0 209 0 209 28 6 c15 2 53 8 85 11
82 9 112 49 68 89 -17 16 -27 16 -102 5 -77 -11 -233 -8 -315 7 -21 4 -36 1
-47 -11z m275 -78 l-32 -33 0 -187 c0 -118 -4 -187 -10 -187 -6 0 -10 69 -10
187 l0 187 -32 33 -32 33 74 0 74 0 -32 -33z"/>
</g>
</svg>
